<?xml version="1.0" encoding="UTF-8"?>
<svg width="165px" height="47px" viewBox="0 0 165 47" version="1.1" xmlns="http://www.w3.org/2000/svg" xmlns:xlink="http://www.w3.org/1999/xlink">
    <!-- Generator: Sketch 52.5 (67469) - http://www.bohemiancoding.com/sketch -->
    <title>badges_app-store</title>
    <desc>Created with Sketch.</desc>
    <g id="new" stroke="none" stroke-width="1" fill="none" fill-rule="evenodd">
        <g id="portal-rt.ru" transform="translate(-330.000000, -4090.000000)" fill-rule="nonzero">
            <g id="Group-13" transform="translate(0.000000, 3777.000000)">
                <g id="Group-6">
                    <g id="badges_app-store" transform="translate(330.000000, 313.000000)">
                        <path d="M164.339726,42.28868 C164.339726,44.8916 162.224089,47 159.607347,47 L4.73854948,47 C2.12302729,47 0,44.89159 0,42.28868 L0,4.71747 C0,2.11579 2.12302729,0 4.73854948,0 L159.606127,0 C162.224119,0 164.338496,2.11579 164.338496,4.71747 L164.339726,42.28868 Z" id="Shape" fill="#404455"></path>
                        <g id="Group" transform="translate(14.115068, 6.000000)" fill="#FFFFFF">
                            <path d="M21.9011218,17.08443 C21.8654005,13.14661 25.1519128,11.23085 25.3021979,11.14166 C23.4409043,8.45006 20.5559658,8.08231 19.5421712,8.05298 C17.1191684,7.80007 14.7688381,9.49102 13.534546,9.49102 C12.275623,9.49102 10.3749081,8.07741 8.32637808,8.11895 C5.69026805,8.15927 3.22414378,9.67306 1.87159759,12.02378 C-0.919727781,16.81685 1.16206334,23.86044 3.83636471,27.73473 C5.17413041,29.63216 6.73732384,31.75074 8.78338367,31.67621 C10.785102,31.59435 11.5328276,30.41044 13.9484401,30.41044 C16.3418819,30.41044 17.0440259,31.67621 19.1307371,31.62856 C21.2790404,31.59435 22.6315866,29.72257 23.9225508,27.80803 C25.4684936,25.63325 26.0893348,23.49146 26.1139757,23.3815 C26.0634639,23.36441 21.9417732,21.80418 21.9011218,17.08443 Z" id="Shape"></path>
                            <path d="M17.9592671,5.50434 C19.0358838,4.16893 19.772519,2.35213 19.568032,0.50846 C18.0097688,0.57688 16.0610222,1.57752 14.9388239,2.88361 C13.94597,4.03453 13.0590597,5.92097 13.2881775,7.695 C15.0386073,7.82451 16.8358488,6.81898 17.9592671,5.50434 Z" id="Shape"></path>
                        </g>
                        <g id="Group" transform="translate(50.410959, 20.000000)" fill="#FFFFFF">
                            <path d="M14.5741308,17.40376 L11.7766553,17.40376 L10.244263,12.6278 L4.9178411,12.6278 L3.45812121,17.40376 L0.734548164,17.40376 L6.01169841,1.14423 L9.27111978,1.14423 L14.5741308,17.40376 Z M9.78232723,10.62407 L8.39651989,6.37836 C8.2499349,5.94463 7.97523551,4.92321 7.56996164,3.31534 L7.52068997,3.31534 C7.35932449,4.00687 7.09940559,5.02829 6.74217337,6.37836 L5.3810069,10.62407 L9.78232723,10.62407 Z" id="Shape"></path>
                            <path d="M28.1451844,11.39746 C28.1451844,13.39141 27.6019459,14.96752 26.5154788,16.12455 C25.5423356,17.15452 24.3339042,17.66889 22.891435,17.66889 C21.3344118,17.66889 20.2159036,17.1142 19.5347003,16.00482 L19.4854286,16.00482 L19.4854286,22.18094 L16.8591689,22.18094 L16.8591689,9.53912 C16.8591689,8.28557 16.8259077,6.99903 16.7618556,5.6795 L19.0715345,5.6795 L19.2181195,7.53784 L19.2673911,7.53784 C20.143211,6.13767 21.4723665,5.43881 23.2560473,5.43881 C24.650475,5.43881 25.8145547,5.98495 26.7458165,7.07845 C27.6795485,8.17316 28.1451844,9.61243 28.1451844,11.39746 Z M25.469653,11.49276 C25.469653,10.35161 25.2109642,9.41084 24.6911364,8.67044 C24.1232671,7.89827 23.360761,7.51219 22.4048684,7.51219 C21.7569262,7.51219 21.1681061,7.72722 20.6421282,8.15118 C20.1149002,8.57881 19.7699884,9.13716 19.6086229,9.82869 C19.5273201,10.15124 19.4866687,10.41515 19.4866687,10.62285 L19.4866687,12.57771 C19.4866687,13.43052 19.7502777,14.15015 20.2775058,14.73783 C20.8047237,15.32551 21.4896171,15.61874 22.3321859,15.61874 C23.3213396,15.61874 24.0912359,15.23999 24.6418648,14.48492 C25.1937236,13.72863 25.469653,12.73165 25.469653,11.49276 Z" id="Shape"></path>
                            <path d="M41.7408688,11.39746 C41.7408688,13.39141 41.1976302,14.96752 40.1099332,16.12455 C39.1380099,17.15452 37.9295987,17.66889 36.4871193,17.66889 C34.9300861,17.66889 33.8115879,17.1142 33.1316147,16.00482 L33.082343,16.00482 L33.082343,22.18094 L30.4560833,22.18094 L30.4560833,9.53912 C30.4560833,8.28557 30.4228221,6.99903 30.35877,5.6795 L32.6684489,5.6795 L32.8150339,7.53784 L32.8643055,7.53784 C33.7389054,6.13767 35.0680508,5.43881 36.8529618,5.43881 C38.2461593,5.43881 39.4102391,5.98495 40.3439711,7.07845 C41.2740129,8.17316 41.7408688,9.61243 41.7408688,11.39746 Z M39.0653374,11.49276 C39.0653374,10.35161 38.8054286,9.41084 38.2855908,8.67044 C37.7177214,7.89827 36.9576754,7.51219 36.0005427,7.51219 C35.3513705,7.51219 34.7637905,7.72722 34.2365624,8.15118 C33.7093344,8.57881 33.3656526,9.13716 33.2042871,9.82869 C33.1242244,10.15124 33.0823329,10.41515 33.0823329,10.62285 L33.0823329,12.57771 C33.0823329,13.43052 33.3459419,14.15015 33.8706998,14.73783 C34.3979279,15.32429 35.0828213,15.61874 35.9278501,15.61874 C36.9170038,15.61874 37.6869002,15.23999 38.237529,14.48492 C38.7894181,13.72863 39.0653374,12.73165 39.0653374,11.49276 Z" id="Shape"></path>
                            <path d="M56.9416281,12.84405 C56.9416281,14.22711 56.4575215,15.35238 55.4856083,16.22107 C54.4176118,17.1704 52.9308011,17.64445 51.0202258,17.64445 C49.2562455,17.64445 47.8421072,17.30724 46.7716506,16.63159 L47.3801815,14.46048 C48.5331708,15.15201 49.798254,15.499 51.1766711,15.499 C52.1658249,15.499 52.9357212,15.27664 53.4888101,14.83435 C54.0394389,14.39206 54.3141383,13.79827 54.3141383,13.05787 C54.3141383,12.3981 54.0874805,11.84219 53.632935,11.39135 C53.1808596,10.94051 52.4257438,10.52144 51.3713078,10.13413 C48.5011498,9.0724 47.0673008,7.51706 47.0673008,5.47179 C47.0673008,4.13516 47.5698779,3.03921 48.5762823,2.18641 C49.5789966,1.33238 50.9167623,0.90598 52.5895794,0.90598 C54.0813203,0.90598 55.3205427,1.16378 56.3096964,1.67815 L55.653134,3.80161 C54.7292625,3.30312 53.6846667,3.05388 52.5156668,3.05388 C51.5917953,3.05388 50.8699507,3.27991 50.352583,3.72953 C49.915278,4.1315 49.6960206,4.62143 49.6960206,5.20178 C49.6960206,5.84444 49.9460791,6.37592 50.4486663,6.79377 C50.8859713,7.17985 51.6804984,7.59771 52.8334777,8.04854 C54.2439158,8.61178 55.2798913,9.27033 55.9463141,10.02539 C56.6102667,10.77801 56.9416281,11.72001 56.9416281,12.84405 Z" id="Shape"></path>
                            <path d="M65.6247847,7.63436 L62.7299958,7.63436 L62.7299958,13.32666 C62.7299958,14.77448 63.2399733,15.49778 64.2623982,15.49778 C64.7317142,15.49778 65.1209876,15.45746 65.4289381,15.37682 L65.5016105,17.35489 C64.9842428,17.54671 64.3030396,17.64323 63.4592408,17.64323 C62.4220353,17.64323 61.6114976,17.32923 61.0263877,16.70245 C60.4437379,16.07445 60.1505679,15.02127 60.1505679,13.54169 L60.1505679,7.63191 L58.426009,7.63191 L58.426009,5.67705 L60.1505679,5.67705 L60.1505679,3.53037 L62.730016,2.7582 L62.730016,5.67705 L65.6248048,5.67705 C65.6247947,5.67705 65.6247947,7.63436 65.6247847,7.63436 Z" id="Shape"></path>
                            <path d="M78.6858608,11.44511 C78.6858608,13.24724 78.1660331,14.72683 77.1288276,15.88386 C76.0411305,17.0751 74.5974212,17.66889 72.7977298,17.66889 C71.0633105,17.66889 69.6824333,17.09831 68.6526282,15.95717 C67.622823,14.81602 67.1079255,13.37554 67.1079255,11.63938 C67.1079255,9.82259 67.6376136,8.33445 68.7006799,7.17742 C69.7612861,6.01917 71.1926751,5.44004 72.9923765,5.44004 C74.7267858,5.44004 76.1224535,6.01061 77.1756695,7.15298 C78.1832736,8.26113 78.6858608,9.69184 78.6858608,11.44511 Z M75.9610477,11.52941 C75.9610477,10.44813 75.7282297,9.52079 75.2564436,8.7474 C74.7058249,7.81151 73.9186779,7.34479 72.8987231,7.34479 C71.843047,7.34479 71.0411296,7.81273 70.4904907,8.7474 C70.0186946,9.52201 69.7858867,10.46401 69.7858867,11.57828 C69.7858867,12.65956 70.0187147,13.5869 70.4904907,14.35906 C71.0583702,15.29495 71.8516673,15.76167 72.8753122,15.76167 C73.8780265,15.76167 74.6651533,15.28517 75.2330328,14.33462 C75.7171494,13.54658 75.9610477,12.60947 75.9610477,11.52941 Z" id="Shape"></path>
                            <path d="M87.2224324,7.97035 C86.9625135,7.9227 86.6853541,7.89826 86.3946442,7.89826 C85.4707726,7.89826 84.7563182,8.24402 84.2537311,8.93678 C83.8164362,9.54767 83.5971687,10.31984 83.5971687,11.25206 L83.5971687,17.40375 L80.972149,17.40375 L80.9967899,9.37173 C80.9967899,8.02043 80.9635288,6.79009 80.8982365,5.68071 L83.1857447,5.68071 L83.281838,7.92391 L83.3545105,7.92391 C83.6316598,7.15296 84.0689648,6.5323 84.6676252,6.0668 C85.2527452,5.64773 85.8846667,5.4388 86.5658801,5.4388 C86.8085484,5.4388 87.0278058,5.45591 87.2224324,5.48645 C87.2224324,5.48646 87.2224324,7.97035 87.2224324,7.97035 Z" id="Shape"></path>
                            <path d="M98.9679036,10.98694 C98.9679036,11.45366 98.9371025,11.84708 98.8718102,12.16841 L90.9930411,12.16841 C91.0238422,13.32666 91.4044752,14.21246 92.1361802,14.82335 C92.8001429,15.36949 93.6587222,15.64317 94.7131682,15.64317 C95.8797081,15.64317 96.9440044,15.45868 97.901127,15.08848 L98.3125611,16.89672 C97.1940629,17.38055 95.8735378,17.62124 94.3497556,17.62124 C92.5168031,17.62124 91.0780239,17.0861 90.0309782,16.01703 C88.9863925,14.94797 88.4628546,13.51237 88.4628546,11.71146 C88.4628546,9.94353 88.9494212,8.47128 89.9238045,7.29715 C90.9437593,6.04359 92.3221664,5.41682 94.0566058,5.41682 C95.760224,5.41682 97.049938,6.0436 97.9257679,7.29715 C98.6193017,8.2929 98.9679036,9.52446 98.9679036,10.98694 Z M96.4636081,10.31129 C96.4808587,9.53912 96.3096228,8.87203 95.9536408,8.30878 C95.4990852,7.58426 94.8006413,7.22261 93.8607592,7.22261 C93.0021799,7.22261 92.3037361,7.57571 91.7703579,8.28434 C91.3330428,8.84758 91.0731441,9.52323 90.9930713,10.31006 L96.4636182,10.31006 L96.4636182,10.31129 L96.4636081,10.31129 Z" id="Shape"></path>
                        </g>
                        <g id="Group" transform="translate(51.419178, 7.000000)" fill="#FFFFFF">
                            <path d="M0.975401644,0.79866 C1.25502115,0.6325 1.57037195,0.49321 1.92513403,0.37837 C2.27866608,0.26352 2.69503036,0.2061 3.17420668,0.2061 C3.94656307,0.2061 4.55508384,0.38815 5.0010091,0.75102 C5.44693436,1.11389 5.66989195,1.60383 5.66989195,2.22083 C5.66989195,2.71077 5.5208469,3.12129 5.22273666,3.45361 C4.92462641,3.78593 4.54277348,4.00708 4.08082762,4.11704 L4.08082762,4.15247 C4.33581633,4.19279 4.57725458,4.26121 4.80391233,4.36017 C5.03180011,4.45914 5.23135693,4.59109 5.40135277,4.75725 C5.57257863,4.92341 5.70807321,5.11645 5.80785666,5.33882 C5.9064,5.55996 5.9569017,5.80432 5.9569017,6.07434 C5.9569017,6.51663 5.86696855,6.88805 5.68713249,7.18861 C5.50728636,7.48917 5.27323836,7.73353 4.98252844,7.92413 C4.69304855,8.11351 4.36784745,8.25035 4.00938521,8.33221 C3.65092296,8.41407 3.29246071,8.45683 2.93399847,8.45683 C2.55090542,8.45683 2.17273249,8.41651 1.79824964,8.33832 C1.42377688,8.26013 1.07763507,8.12939 0.75858411,7.94735 L1.08132515,6.96381 C1.28827222,7.06644 1.55557129,7.16541 1.88201249,7.2607 C2.20844362,7.356 2.5385749,7.40243 2.87363638,7.40243 C3.42303518,7.40243 3.84800964,7.28025 4.14611989,7.03589 C4.44422005,6.79031 4.59450521,6.46287 4.59450521,6.05235 C4.59450521,5.775 4.53414312,5.54897 4.41465907,5.37059 C4.29394499,5.19221 4.13872964,5.05292 3.9477931,4.94907 C3.75686663,4.84644 3.54374926,4.77558 3.30847123,4.73648 C3.07319321,4.69738 2.84037523,4.67661 2.61001732,4.67661 L2.07170893,4.67661 L2.07170893,3.70285 L2.61001732,3.70285 C2.85638575,3.70285 3.08550356,3.67231 3.29738082,3.60755 C3.50802805,3.54524 3.69156427,3.45605 3.84676953,3.3412 C4.00198488,3.22635 4.12392899,3.08951 4.211392,2.9319 C4.29762499,2.77429 4.34196647,2.59591 4.34196647,2.39798 C4.34196647,2.04244 4.21385205,1.76387 3.95886334,1.56228 C3.70387463,1.36069 3.3614229,1.25928 2.93151825,1.25928 C2.63710816,1.25928 2.34146805,1.30693 2.04706805,1.40101 C1.75266805,1.49631 1.48904899,1.59894 1.25747112,1.7089 L0.975401644,0.79866 Z" id="Shape"></path>
                            <path d="M11.2377622,8.32486 L11.1429089,7.66143 L11.1071877,7.66143 C10.7179244,8.19046 10.1525252,8.45559 9.41095978,8.45559 C9.14735079,8.45559 8.90960263,8.41161 8.69403529,8.32486 C8.47846795,8.23811 8.29123156,8.1196 8.13231605,7.96932 C7.9721806,7.81904 7.85022641,7.64188 7.76153337,7.4354 C7.67407036,7.23014 7.6309589,7.00411 7.6309589,6.75975 C7.6309589,6.04134 7.9253589,5.50131 8.5154091,5.1421 C9.10545929,4.78289 9.94063781,4.60329 11.0246448,4.60329 L11.0246448,4.497 C11.0246448,3.73827 10.6230711,3.35952 9.81991364,3.35952 C9.24711408,3.35952 8.74206685,3.50247 8.30599189,3.78592 L8.04361293,2.94533 C8.57699112,2.61423 9.24095386,2.44806 10.035481,2.44806 C11.5543329,2.44806 12.3143588,3.24222 12.3143588,4.83054 L12.3143588,6.95156 C12.3143588,7.54413 12.3426898,8.0023 12.3981216,8.32607 L11.237742,8.32607 L11.237742,8.32486 L11.2377622,8.32486 Z M11.0591461,5.45733 C10.3385315,5.45733 9.80145315,5.54774 9.44915112,5.72979 C9.0968491,5.91184 8.92069304,6.20873 8.92069304,6.61925 C8.92069304,6.91981 9.00322586,7.14462 9.16952153,7.2949 C9.33581721,7.44518 9.54646444,7.51971 9.80022312,7.51971 C9.96651879,7.51971 10.1241942,7.49039 10.2757094,7.43052 C10.4259945,7.37187 10.557799,7.29002 10.6723529,7.18738 C10.7881468,7.08475 10.88053,6.96013 10.9532125,6.81351 C11.0246549,6.66689 11.0591461,6.51173 11.0591461,6.34556 L11.0591461,5.45733 Z" id="Shape"></path>
                            <polygon id="Shape" points="18.5400316 2.56536 18.5400316 3.61976 16.1256491 3.61976 16.1256491 8.32486 14.835925 8.32486 14.835925 2.56536 18.5400316 2.56536"></polygon>
                            <path d="M25.9236138,5.37425 C25.9236138,5.83242 25.8595616,6.25149 25.7326773,6.63025 C25.6045628,7.01023 25.4284169,7.334 25.2005291,7.60157 C24.9738713,7.87036 24.7028721,8.08051 24.3887513,8.22957 C24.0734106,8.37985 23.7260287,8.4556 23.3429357,8.4556 C22.5779695,8.4556 22.0285707,8.18314 21.6935193,7.63822 L21.6688785,7.63822 L21.6688785,10.67191 L20.3779244,10.67191 L20.3779244,4.46157 C20.3779244,4.15368 20.3742343,3.84335 20.365614,3.53057 C20.3582238,3.21901 20.3459033,2.89646 20.3311228,2.56414 L21.4656416,2.56414 L21.5383141,3.47681 L21.562955,3.47681 C21.9928596,2.79017 22.6457319,2.44562 23.5227919,2.44562 C23.8640035,2.44562 24.1818144,2.51648 24.4725243,2.65821 C24.7632342,2.80116 25.0157628,3.00031 25.2313302,3.25689 C25.4468975,3.51346 25.6156633,3.82135 25.7388375,4.18178 C25.8620217,4.54221 25.9236138,4.93929 25.9236138,5.37425 Z M24.610489,5.4219 C24.610489,5.13722 24.5759978,4.87454 24.5082455,4.63385 C24.4404932,4.39316 24.3407097,4.1879 24.2101352,4.01807 C24.0795708,3.84824 23.9194253,3.71385 23.7321889,3.61488 C23.5449525,3.51592 23.3355454,3.46704 23.1039575,3.46704 C22.9216513,3.46704 22.7418052,3.50736 22.5656491,3.58555 C22.3895031,3.66374 22.2367579,3.77126 22.1061734,3.90566 C21.9743689,4.04006 21.8696653,4.20255 21.7895925,4.39193 C21.7095299,4.58131 21.6688684,4.7829 21.6688684,4.99671 L21.6688684,5.95703 C21.6688684,6.16962 21.7021295,6.36755 21.7711119,6.5496 C21.8388541,6.73165 21.9337074,6.88926 22.0568916,7.02365 C22.1800758,7.15805 22.3279009,7.26312 22.4991167,7.33765 C22.6703426,7.4134 22.8588191,7.45005 23.0657561,7.45005 C23.5523327,7.45005 23.9305056,7.26678 24.201515,6.89902 C24.4725243,6.53128 24.610489,6.03768 24.610489,5.4219 Z" id="Shape"></path>
                            <path d="M32.8563406,2.56536 L31.3855303,6.55938 C31.0356984,7.50749 30.6944767,8.28332 30.3643454,8.8881 C30.0329942,9.49288 29.7176434,9.93273 29.414603,10.21007 C28.9686878,10.60471 28.4944316,10.84662 27.9918444,10.93214 L27.6814238,9.85452 C28.0152552,9.76777 28.334286,9.59795 28.6373164,9.34503 C28.9391268,9.09212 29.181785,8.7769 29.3665613,8.39693 C29.4306135,8.27109 29.4614146,8.18434 29.4614146,8.13669 C29.4614146,8.08904 29.4367838,7.99863 29.3899722,7.86423 L27.2860103,2.56656 L28.7075288,2.56656 L29.8075564,5.77864 C29.8642183,5.92892 29.9196502,6.09875 29.9750821,6.28813 C30.0317541,6.47751 30.0908761,6.68765 30.1549383,6.91613 L30.1795691,6.91613 C30.2189804,6.78906 30.2633319,6.63023 30.3101536,6.43597 C30.3581953,6.24293 30.4222475,6.01934 30.5010801,5.76643 L31.4816136,2.56657 L32.8563305,2.56657 L32.8563406,2.56536 Z" id="Shape"></path>
                            <path d="M35.090887,4.95884 L35.6870974,4.95884 C36.1244024,4.95884 36.4643739,4.88065 36.702112,4.72181 C36.9398602,4.56298 37.0605843,4.36994 37.0605843,4.14024 C37.0605843,3.90321 36.9595708,3.71384 36.7550838,3.57211 C36.553067,3.43038 36.2709773,3.3583 35.9125252,3.3583 C35.6809271,3.3583 35.4481192,3.39618 35.2153013,3.4707 C34.9800132,3.54645 34.7632259,3.63931 34.563669,3.74927 L34.2298275,2.9209 C34.563659,2.74008 34.8962503,2.61545 35.2288416,2.54825 C35.5589628,2.48105 35.8903342,2.44684 36.2253856,2.44684 C36.4902247,2.44684 36.7550738,2.4725 37.0211529,2.52381 C37.2859919,2.57512 37.5237401,2.66187 37.730677,2.78405 C37.9376241,2.90623 38.10885,3.06628 38.2381944,3.26421 C38.370009,3.46214 38.4353013,3.7065 38.4353013,3.99973 C38.4353013,4.18178 38.3995801,4.34183 38.3269076,4.47989 C38.2566952,4.61795 38.1606019,4.74013 38.0411178,4.84643 C37.9228638,4.95272 37.7885892,5.04069 37.6420142,5.10667 C37.4954192,5.17387 37.3439141,5.22396 37.194859,5.25573 L37.194859,5.29116 C37.3845655,5.3156 37.5705718,5.36325 37.750418,5.43411 C37.929024,5.50497 38.0891695,5.59783 38.2345245,5.71268 C38.3761793,5.82753 38.4919833,5.96559 38.5806663,6.12687 C38.6668993,6.28937 38.7100107,6.47264 38.7100107,6.6779 C38.7100107,7.01756 38.6287079,7.30223 38.4599522,7.53071 C38.2936465,7.76041 38.0793192,7.94123 37.8194104,8.07563 C37.5619516,8.21003 37.2761718,8.30655 36.9657512,8.36642 C36.6553407,8.42507 36.3523003,8.45561 36.0591303,8.45561 C35.700658,8.45561 35.3446659,8.41773 34.9960539,8.34321 C34.6449819,8.26746 34.3296412,8.15139 34.0500217,7.99378 L34.3863132,7.15197 C34.5932603,7.26315 34.8285383,7.35601 35.0958374,7.43054 C35.3631364,7.50507 35.6353859,7.54294 35.9137753,7.54294 C36.3510803,7.54294 36.6885918,7.45864 36.9238698,7.28881 C37.1566878,7.11898 37.2749418,6.90761 37.2749418,6.6547 C37.2749418,6.48854 37.2367605,6.34925 37.1566878,6.23441 C37.0766251,6.11956 36.9645212,6.02671 36.8228563,5.95584 C36.6787415,5.88498 36.5124458,5.83488 36.3202792,5.808 C36.1305727,5.7799 35.9211656,5.76646 35.699438,5.76646 L35.0909072,5.76646 L35.0909072,4.95884 L35.090887,4.95884 Z" id="Shape"></path>
                            <path d="M41.9841824,2.56536 L41.9841824,4.6033 C41.9841824,5.07002 41.9768022,5.4891 41.9595516,5.8593 C41.9423009,6.23072 41.9238304,6.62169 41.8991794,7.03221 L41.9238203,7.05542 C42.0753355,6.75486 42.2243906,6.46163 42.3709655,6.17207 C42.5200105,5.88373 42.6690656,5.58928 42.8205808,5.28872 L44.2544298,2.56292 L45.926027,2.56292 L45.926027,8.32242 L44.7065254,8.32242 L44.7065254,6.28448 C44.7065254,5.85808 44.7188357,5.43167 44.7373164,5.00527 C44.7570271,4.57764 44.7779678,4.14758 44.8026087,3.71262 L44.7422466,3.71262 C44.6079719,4.06816 44.4724673,4.37605 44.3357427,4.63751 C44.2014681,4.89775 44.0659634,5.16654 43.9316888,5.44389 C43.6841004,5.91794 43.4389519,6.392 43.1950637,6.86605 C42.9523954,7.3401 42.6949365,7.82637 42.4251673,8.32364 L40.7535702,8.32364 L40.7535702,2.56536 L41.9841824,2.56536 Z" id="Shape"></path>
                            <polygon id="Shape" points="52.7380498 2.56536 52.7380498 3.61976 50.9703693 3.61976 50.9703693 8.32486 49.701586 8.32486 49.701586 3.61976 47.945006 3.61976 47.945006 2.56536"></polygon>
                            <path d="M59.3209447,5.17265 C59.3209447,5.28261 59.3160145,5.38768 59.3086242,5.48665 C59.3012441,5.58561 59.2889135,5.67481 59.272903,5.753 L55.4012708,5.753 C55.4185214,6.29792 55.5909773,6.71943 55.9210985,7.0151 C56.2512298,7.31077 56.6885348,7.45983 57.2293032,7.45983 C57.7947125,7.45983 58.3170104,7.36942 58.7949567,7.18737 L58.9969736,8.07683 C58.4463548,8.31386 57.7984026,8.43237 57.0482271,8.43237 C56.5961517,8.43237 56.1896377,8.36273 55.8311755,8.22467 C55.4727132,8.08661 55.1696828,7.89112 54.9220945,7.63821 C54.6769661,7.3853 54.4860296,7.08107 54.3542251,6.72554 C54.2248706,6.37 54.1595985,5.9717 54.1595985,5.52941 C54.1595985,5.08712 54.2248807,4.67783 54.3542251,4.30274 C54.4860296,3.92765 54.6720359,3.60143 54.909774,3.32531 C55.1499822,3.04796 55.4394621,2.83171 55.7757536,2.67288 C56.1145153,2.51527 56.4926781,2.43585 56.9065723,2.43585 C57.2724147,2.43585 57.6037861,2.50061 57.9055763,2.63134 C58.2036765,2.76085 58.4586652,2.94656 58.6680824,3.18848 C58.8799496,3.42917 59.0413252,3.71874 59.1521889,4.0535 C59.2655027,4.38827 59.3209447,4.76213 59.3209447,5.17265 Z M58.0891125,4.84155 C58.0891125,4.39071 57.9807189,4.0254 57.7614413,3.74561 C57.5421738,3.46582 57.225593,3.3241 56.8116988,3.3241 C56.4359961,3.3241 56.1194152,3.46583 55.8570363,3.7505 C55.5946573,4.03517 55.4431421,4.39805 55.4024907,4.84155 L58.0891125,4.84155 Z" id="Shape"></path>
                            <path d="M64.5204923,2.61301 C64.7520802,2.57391 65.0452502,2.54215 65.4037124,2.51771 C65.7621747,2.49327 66.1280272,2.48228 66.50373,2.48228 C66.7414781,2.48228 67.0112473,2.49694 67.3093475,2.52382 C67.6074477,2.5507 67.8944675,2.61423 68.1630067,2.7132 C68.4352359,2.81216 68.6606637,2.96 68.8441999,3.15793 C69.0277462,3.35586 69.1213593,3.62343 69.1213593,3.96309 C69.1213593,4.13781 69.0880982,4.29419 69.0252761,4.43104 C68.9599838,4.5691 68.8762209,4.69006 68.7678172,4.79269 C68.6594236,4.89532 68.5362293,4.98085 68.3970345,5.04682 C68.2578398,5.11402 68.1137148,5.16411 67.9609696,5.19466 L67.9732901,5.23009 C68.3945745,5.30095 68.7382562,5.45123 69.0006352,5.68093 C69.2630141,5.91063 69.3948287,6.22585 69.3948287,6.62904 C69.3948287,7.03223 69.2814948,7.35234 69.0609973,7.58936 C68.8367996,7.82639 68.5633302,8.00477 68.235669,8.12328 C67.9079978,8.24179 67.5643261,8.31754 67.2009337,8.34931 C66.8400114,8.37985 66.5148103,8.39696 66.2290205,8.39696 C65.9087395,8.39696 65.5958588,8.38963 65.2903684,8.37252 C64.9824079,8.35664 64.7274192,8.34075 64.5204721,8.32487 L64.5204721,2.61301 L64.5204923,2.61301 Z M65.7621646,4.91241 L66.418727,4.91241 C66.6182939,4.91241 66.8079904,4.89897 66.9866065,4.87087 C67.1664526,4.84399 67.322898,4.80001 67.4583925,4.74136 C67.5951272,4.68149 67.6986008,4.6033 67.7762135,4.50433 C67.851346,4.40537 67.8895373,4.28563 67.8895373,4.14268 C67.8895373,3.88244 67.7811437,3.69062 67.559406,3.56844 C67.3401385,3.44626 66.9964568,3.38517 66.5271408,3.38517 C66.3928662,3.38517 66.2746122,3.38883 66.1736088,3.39739 C66.0750553,3.40472 65.9383207,3.41694 65.7621747,3.43282 C65.7621747,3.43283 65.7621646,4.91241 65.7621646,4.91241 Z M65.7621646,7.45984 C65.92107,7.47572 66.0553447,7.48672 66.1612782,7.49527 C66.2696719,7.50382 66.3940962,7.50749 66.5394411,7.50749 C66.7155871,7.50749 66.8929732,7.49649 67.0765195,7.47206 C67.2588256,7.44885 67.4275915,7.40364 67.5790965,7.33644 C67.7306117,7.27046 67.8513359,7.18005 67.942489,7.0652 C68.0336421,6.95157 68.0816837,6.80007 68.0816837,6.61192 C68.0816837,6.28204 67.9326286,6.05479 67.6394485,5.92894 C67.3438185,5.8031 66.9471649,5.74078 66.4433376,5.74078 L65.7621444,5.74078 L65.7621444,7.45983 L65.7621646,7.45983 L65.7621646,7.45984 Z" id="Shape"></path>
                        </g>
                    </g>
                </g>
            </g>
        </g>
    </g>
</svg>