<?xml version="1.0" encoding="UTF-8"?>
<svg width="165px" height="47px" viewBox="0 0 165 47" version="1.1" xmlns="http://www.w3.org/2000/svg" xmlns:xlink="http://www.w3.org/1999/xlink">
    <!-- Generator: Sketch 52.5 (67469) - http://www.bohemiancoding.com/sketch -->
    <title>badges_google-play</title>
    <desc>Created with Sketch.</desc>
    <defs>
        <linearGradient x1="91.5002342%" y1="4.96324633%" x2="-38.3362662%" y2="71.9038086%" id="linearGradient-1">
            <stop stop-color="#00A0FF" offset="0%"></stop>
            <stop stop-color="#00A1FF" offset="0.657%"></stop>
            <stop stop-color="#00BEFF" offset="26.01%"></stop>
            <stop stop-color="#00D2FF" offset="51.22%"></stop>
            <stop stop-color="#00DFFF" offset="76.04%"></stop>
            <stop stop-color="#00E3FF" offset="100%"></stop>
        </linearGradient>
        <linearGradient x1="107.58974%" y1="50.0000956%" x2="-130.463078%" y2="50.0000956%" id="linearGradient-2">
            <stop stop-color="#FFE000" offset="0%"></stop>
            <stop stop-color="#FFBD00" offset="40.87%"></stop>
            <stop stop-color="#FFA500" offset="77.54%"></stop>
            <stop stop-color="#FF9C00" offset="100%"></stop>
        </linearGradient>
        <linearGradient x1="86.2466603%" y1="17.8462133%" x2="-50.1406989%" y2="194.809902%" id="linearGradient-3">
            <stop stop-color="#FF3A44" offset="0%"></stop>
            <stop stop-color="#C31162" offset="100%"></stop>
        </linearGradient>
        <linearGradient x1="-18.8060963%" y1="-54.1525272%" x2="42.0966128%" y2="24.8685249%" id="linearGradient-4">
            <stop stop-color="#32A071" offset="0%"></stop>
            <stop stop-color="#2DA771" offset="6.85%"></stop>
            <stop stop-color="#15CF74" offset="47.62%"></stop>
            <stop stop-color="#06E775" offset="80.09%"></stop>
            <stop stop-color="#00F076" offset="100%"></stop>
        </linearGradient>
    </defs>
    <g id="new" stroke="none" stroke-width="1" fill="none" fill-rule="evenodd">
        <g id="portal-rt.ru" transform="translate(-150.000000, -4090.000000)" fill-rule="nonzero">
            <g id="Group-13" transform="translate(0.000000, 3777.000000)">
                <g id="Group-6">
                    <g id="badges_google-play" transform="translate(150.000000, 313.000000)">
                        <path d="M158.253077,47 L6.08665951,47 C2.73899879,47 0,44.35625 0,41.125 L0,5.875 C0,2.64375 2.73899879,0 6.08665951,0 L158.253077,0 C161.600737,0 164.339726,2.64375 164.339726,5.875 L164.339726,41.125 C164.339726,44.35625 161.600737,47 158.253077,47 Z" id="Shape" fill="#404455"></path>
                        <g id="Group" transform="translate(12.098630, 6.000000)">
                            <path d="M71.8629291,19.0653 C68.9643897,19.0653 66.6020112,21.25088 66.6020112,24.26353 C66.6020112,27.25651 68.9643897,29.46188 71.8629291,29.46188 C74.7613475,29.46188 77.123847,27.2565 77.123847,24.26353 C77.123847,21.25088 74.7613475,19.0653 71.8629291,19.0653 Z M71.8629291,27.41405 C70.2747822,27.41405 68.9048745,26.11446 68.9048745,24.26353 C68.9048745,22.39292 70.2747822,21.11313 71.8629291,21.11313 C73.4510759,21.11313 74.8208627,22.39292 74.8208627,24.26353 C74.8208627,26.11447 73.4510759,27.41405 71.8629291,27.41405 Z M60.3863198,19.0653 C57.4877804,19.0653 55.1254019,21.25088 55.1254019,24.26353 C55.1254019,27.25651 57.4877804,29.46188 60.3863198,29.46188 C63.2847382,29.46188 65.6471268,27.2565 65.6471268,24.26353 C65.6471268,21.25088 63.2847483,19.0653 60.3863198,19.0653 Z M60.3863198,27.41405 C58.7980519,27.41405 57.4282652,26.11446 57.4282652,24.26353 C57.4282652,22.39292 58.798062,21.11313 60.3863198,21.11313 C61.9744666,21.11313 63.3442534,22.39292 63.3442534,24.26353 C63.3442635,26.11447 61.9744767,27.41405 60.3863198,27.41405 Z M46.7342759,20.6603 L46.7342759,22.86556 L52.0548401,22.86556 C51.8958742,24.10612 51.4791268,25.01178 50.8437672,25.64196 C50.0695356,26.40988 48.8584627,27.25652 46.7342759,27.25652 C43.4586626,27.25652 40.8977657,24.63766 40.8977657,21.38875 C40.8977657,18.13984 43.4586626,15.52098 46.7342759,15.52098 C48.5012204,15.52098 49.7916603,16.21019 50.7445685,17.09618 L52.3128736,15.54066 C50.9827603,14.28055 49.2159369,13.3156 46.7342759,13.3156 C42.2475897,13.3156 38.4756199,16.93876 38.4756199,21.38874 C38.4756199,25.83885 42.2475897,29.46188 46.7342759,29.46188 C49.1563007,29.46188 50.9827704,28.67428 52.4120723,27.19747 C53.8811787,25.74034 54.3378617,23.69262 54.3378617,22.03859 C54.3378617,21.5266 54.2981883,21.05409 54.2185793,20.66029 L46.7342759,20.66029 L46.7342759,20.6603 Z M102.566238,22.37325 C102.129518,21.21153 100.799404,19.0653 98.0795516,19.0653 C95.3796515,19.0653 93.1364344,21.17217 93.1364344,24.26353 C93.1364344,27.1778 95.3598198,29.46188 98.3377162,29.46188 C100.739778,29.46188 102.129518,28.00475 102.70511,27.15812 L100.918445,25.97672 C100.32289,26.84303 99.5089845,27.41405 98.3377162,27.41405 C97.1663268,27.41405 96.3325699,26.88238 95.79653,25.83885 L102.804561,22.96406 L102.566238,22.37325 Z M95.419456,24.10611 C95.3598198,22.09763 96.9877712,21.07378 98.1589085,21.07378 C99.0722643,21.07378 99.846496,21.52661 100.10453,22.17647 L95.419456,24.10611 Z M89.7216969,29.1468 L92.0245602,29.1468 L92.0245602,13.86707 L89.7216969,13.86707 L89.7216969,29.1468 Z M85.9497271,20.22702 L85.8703702,20.22702 C85.3541721,19.61664 84.3615803,19.0653 83.1108239,19.0653 C80.4904118,19.0653 78.0882288,21.34939 78.0882288,24.28321 C78.0882288,27.19748 80.4904118,29.46189 83.1108239,29.46189 C84.3615702,29.46189 85.3541721,28.91055 85.8703702,28.28049 L85.9497271,28.28049 L85.9497271,29.02873 C85.9497271,31.01753 84.8777784,32.08074 83.1505074,32.08074 C81.7411581,32.08074 80.8674858,31.07656 80.5102435,30.22981 L78.5050972,31.05689 C79.0808105,32.43519 80.6094422,34.12858 83.1505074,34.12858 C85.8505284,34.12858 88.13355,32.55338 88.13355,28.71365 L88.13355,19.38027 L85.9497271,19.38027 L85.9497271,20.22702 Z M83.3094632,27.41405 C81.7213164,27.41405 80.3910922,26.09478 80.3910922,24.28321 C80.3910922,22.45208 81.7213265,21.11313 83.3094632,21.11313 C84.8777784,21.11313 86.108562,22.45207 86.108562,24.28321 C86.108562,26.09479 84.8777784,27.41405 83.3094632,27.41405 Z M113.353387,13.86731 L107.84366,13.86731 L107.84366,29.1468 L110.142702,29.1468 L110.142702,23.35787 L113.353376,23.35787 C115.902195,23.35787 118.407156,21.52784 118.407156,18.61259 C118.407156,15.69734 115.902205,13.86731 113.353387,13.86731 Z M113.412781,21.23145 L110.142713,21.23145 L110.142713,15.99386 L113.412781,15.99386 C115.131915,15.99386 116.108124,17.40565 116.108124,18.61259 C116.108124,19.7968 115.131915,21.23145 113.412781,21.23145 Z M127.622924,19.03719 C125.958143,19.03719 124.233816,19.76453 123.520339,21.3764 L125.561711,22.22169 C125.997685,21.3764 126.810249,21.10116 127.662467,21.10116 C128.851601,21.10116 130.060587,21.80883 130.080428,23.06686 L130.080428,23.22416 C129.664165,22.98827 128.772375,22.63444 127.682308,22.63444 C125.482455,22.63444 123.242938,23.83356 123.242938,26.07451 C123.242938,28.1188 125.04637,29.43586 127.0679,29.43586 C128.613782,29.43586 129.46602,28.74787 130.001192,27.94194 L130.080438,27.94194 L130.080438,29.12139 L132.300114,29.12139 L132.300114,23.26352 C132.300124,20.55079 130.258742,19.03719 127.622924,19.03719 Z M127.345422,27.41112 C126.592262,27.41112 125.541869,27.03773 125.541869,26.11373 C125.541869,24.93441 126.849923,24.48218 127.979662,24.48218 C128.990372,24.48218 129.46602,24.69851 130.080438,24.99331 C129.902004,26.40866 128.673307,27.41112 127.345422,27.41112 Z M140.386263,19.37134 L137.750315,25.99578 L137.670968,25.99578 L134.936072,19.37134 L132.458727,19.37134 L136.561191,28.62992 L134.222596,33.78012 L136.620595,33.78012 L142.942875,19.37134 L140.386263,19.37134 Z M119.675536,29.1468 L121.974457,29.1468 L121.974457,13.86731 L119.675536,13.86731 L119.675536,29.1468 Z" id="Shape" fill="#FFFFFF"></path>
                            <g transform="translate(0.000000, 1.000000)" id="Shape">
                                <path d="M0.760459397,0.69312 C0.402118137,1.06932 0.190160219,1.65342 0.190160219,2.41022 L0.190160219,29.44101 C0.190160219,30.19842 0.402108055,30.78191 0.760459397,31.15811 L0.85164274,31.24623 L16.1182084,16.10424 L16.1182084,15.92567 L16.1182084,15.74698 L0.85164274,0.60439 L0.760459397,0.69312 Z" fill="url(#linearGradient-1)"></path>
                                <path d="M21.206741,21.15373 L16.1182185,16.10424 L16.1182185,15.92567 L16.1182185,15.74698 L21.2079812,10.69871 L21.3227064,10.76361 L27.3519478,14.16151 C29.0741677,15.13196 29.0741677,16.71987 27.3519478,17.69092 L21.3227064,21.08882 L21.206741,21.15373 Z" fill="url(#linearGradient-2)"></path>
                                <path d="M21.3226963,21.08822 L16.1182084,15.92568 L0.760459397,31.15811 C1.32828844,31.75419 2.26530718,31.82801 3.32123529,31.23315 L21.3226963,21.08822" fill="url(#linearGradient-3)"></path>
                                <path d="M21.3226963,10.76301 L3.32123529,0.61808 C2.26530718,0.02322 1.32828844,0.09705 0.760459397,0.69312 L16.1182185,15.92568 L21.3226963,10.76301 Z" fill="url(#linearGradient-4)"></path>
                                <g transform="translate(0.000000, 20.000000)" fill="#000000">
                                    <path d="M21.2079711,0.97456 L3.32123529,11.05459 C2.32063825,11.6184 1.42612603,11.58088 0.852267836,11.06767 L0.760469479,11.15872 L0.851652822,11.24684 L0.852267836,11.24623 C1.42613611,11.75944 2.32063825,11.79757 3.32123529,11.23315 L21.3226963,1.08822 L21.2079711,0.97456 Z" opacity="0.2"></path>
                                    <path d="M0.760459397,10.98016 C0.402118137,10.60384 0.190160219,10.01974 0.190160219,9.26306 L0.190160219,9.44163 C0.190160219,10.19843 0.402108055,10.78241 0.760459397,11.15873 L0.852257753,11.06768 L0.760459397,10.98016 Z" opacity="0.12"></path>
                                </g>
                                <path d="M27.3519378,17.51175 L21.2079711,20.97455 L21.3226963,21.08822 L27.3519378,17.69032 C28.2127956,17.2051 28.6437287,16.56563 28.6437287,15.92616 C28.5711369,16.5044 28.1329447,17.07176 27.3519378,17.51175 Z" fill="#000000" opacity="0.12"></path>
                                <path d="M3.32123529,0.79726 L27.3519378,14.33948 C28.1329547,14.77948 28.571147,15.34635 28.64373,15.92568 C28.6443437,15.28621 28.2132997,14.64614 27.3519378,14.16091 L3.32123529,0.61869 C1.59901545,-0.35188 0.190160219,0.4543 0.190160219,2.41083 L0.190160219,2.5894 C0.190160219,0.63299 1.59901545,-0.17319 3.32123529,0.79726 Z" fill="#FFFFFF" opacity="0.25"></path>
                            </g>
                            <g transform="translate(38.312329, 0.000000)" fill="#FFFFFF" id="Shape">
                                <path d="M1.4844011,9.92528 L0.575844384,9.92528 L0.575844384,7.46776 L1.29906016,7.46776 C1.93921885,6.92106 2.25209951,5.98594 2.238912,4.66166 L2.238912,1.03557 L7.17513293,1.03557 L7.17513293,7.46776 L8.00075353,7.46776 L8.00075353,9.92528 L7.09219682,9.92528 L7.09219682,8.3689 L1.4844011,8.3689 L1.4844011,9.92528 Z M3.18838225,4.66166 C3.20279978,5.82179 2.9681771,6.75753 2.48673227,7.46776 L6.22444274,7.46776 L6.22444274,1.93671 L3.18838225,1.93671 L3.18838225,4.66166 Z"></path>
                                <path d="M15.4100151,7.42119 C14.6830992,8.16247 13.7793517,8.53244 12.6987726,8.53244 C11.6180725,8.53244 10.714325,8.16247 9.98864921,7.42119 C9.26185425,6.68065 8.89957085,5.77412 8.89957085,4.70223 C8.89957085,3.63034 9.26185425,2.72382 9.98864921,1.98327 C10.7143351,1.24199 11.6180826,0.87141 12.6987726,0.87141 C13.7733124,0.87141 14.6747209,1.24382 15.4050849,1.98803 C16.1343399,2.73224 16.4989725,3.63693 16.4989725,4.70222 C16.4989725,5.77412 16.1355801,6.68064 15.4100151,7.42119 Z M10.6903093,6.80714 C11.2378025,7.35677 11.9069273,7.63128 12.6987827,7.63128 C13.490517,7.63128 14.1608719,7.35677 14.7071351,6.80714 C15.2547595,6.25751 15.5290556,5.55558 15.5290556,4.70223 C15.5290556,3.84887 15.2547595,3.14695 14.7071351,2.59732 C14.1608719,2.04769 13.490517,1.77318 12.6987827,1.77318 C11.9069273,1.77318 11.2378025,2.04769 10.6903093,2.59732 C10.143925,3.14695 9.86961885,3.84888 9.86961885,4.70223 C9.86961885,5.55559 10.143915,6.25751 10.6903093,6.80714 Z"></path>
                                <path d="M21.2812787,8.53243 C20.1934404,8.53243 19.2813045,8.16723 18.5447803,7.43671 C17.807147,6.70619 17.4400544,5.79441 17.4400544,4.70223 C17.4400544,3.61005 17.807147,2.69827 18.5447803,1.96775 C19.2813045,1.23723 20.1934404,0.87142 21.2812787,0.87142 C22.395623,0.87142 23.3017096,1.27072 23.9973203,2.06981 L23.3354648,2.70537 C22.8336842,2.0835 22.1476818,1.77318 21.2812686,1.77318 C20.4749957,1.77318 19.7950325,2.04292 19.2415001,2.58241 C18.6867275,3.1219 18.4099612,3.82859 18.4099612,4.70223 C18.4099612,5.57587 18.6867275,6.28317 19.2415001,6.82205 C19.7950325,7.36154 20.4749957,7.63128 21.2812686,7.63128 C22.1693685,7.63128 22.9263496,7.27671 23.5531998,6.5666 L24.2139463,7.22183 C23.8758198,7.62467 23.4533861,7.94392 22.9431062,8.17907 C22.4340664,8.41486 21.8794249,8.53243 21.2812787,8.53243 Z"></path>
                                <polygon points="28.0562898 8.3689 27.1057105 8.3689 27.1057105 1.93671 25.040686 1.93671 25.040686 1.03557 30.1213243 1.03557 30.1213243 1.93671 28.0562898 1.93671"></polygon>
                                <path d="M36.644331,1.03557 L33.8464723,7.22185 C33.460153,8.09562 32.8867787,8.53244 32.1226494,8.53244 C31.895175,8.53244 31.6508129,8.47817 31.3884642,8.36891 L31.6363954,7.4982 C31.7952302,7.58718 31.9601144,7.6313 32.1322578,7.6313 C32.3524629,7.6313 32.5232552,7.58889 32.6436467,7.50358 C32.7640482,7.41827 32.8759303,7.26243 32.9794442,7.03742 L33.2477111,6.4532 L30.7591439,1.03557 L31.8747182,1.03558 L33.7020449,5.24528 L33.7429585,5.24528 L35.5287667,1.03558 L36.644331,1.03557 Z"></path>
                                <polygon points="37.7201109 8.3689 37.7201109 1.03557 43.0692581 1.03557 43.0692581 8.3689 42.1185578 8.3689 42.1185578 1.93671 38.669561 1.93671 38.669561 8.3689"></polygon>
                                <polygon points="44.7623908 8.3689 44.7623908 1.03557 45.711851 1.03557 45.711851 4.17949 49.4086479 4.17949 49.4086479 1.03557 50.3593482 1.03557 50.3593482 8.3689 49.4086479 8.3689 49.4086479 5.06034 45.711851 5.06034 45.711851 8.3689"></polygon>
                                <path d="M58.099477,7.42119 C57.3726821,8.16247 56.4689346,8.53244 55.3882446,8.53244 C54.3076655,8.53244 53.403918,8.16247 52.6782422,7.42119 C51.9514472,6.68065 51.5891638,5.77412 51.5891638,4.70223 C51.5891638,3.63034 51.9514472,2.72382 52.6782422,1.98327 C53.403918,1.24199 54.3076655,0.87141 55.3882446,0.87141 C56.4629054,0.87141 57.3641828,1.24382 58.0946678,1.98803 C58.8239228,2.73224 59.1885554,3.63693 59.1885554,4.70222 C59.1885554,5.77412 58.8251529,6.68064 58.099477,7.42119 Z M53.3797611,6.80714 C53.9273753,7.35677 54.5963792,7.63128 55.3882345,7.63128 C56.1800798,7.63128 56.8503136,7.35677 57.3967079,6.80714 C57.9442113,6.25751 58.2186284,5.55558 58.2186284,4.70223 C58.2186284,3.84887 57.9442012,3.14695 57.3967079,2.59732 C56.8503237,2.04769 56.1800899,1.77318 55.3882345,1.77318 C54.5963792,1.77318 53.9273753,2.04769 53.3797611,2.59732 C52.8334979,3.14695 52.5590707,3.84888 52.5590707,4.70223 C52.5590707,5.55559 52.8334979,6.25751 53.3797611,6.80714 Z"></path>
                                <path d="M63.0731533,8.3689 L63.0731533,1.03557 L65.7470514,1.03557 C66.3258398,1.03557 66.8263904,1.22538 67.2500541,1.60366 C67.6735768,1.98328 67.8854137,2.45946 67.8854137,3.03244 C67.8854137,3.3809 67.7939783,3.68828 67.6111075,3.95448 C67.4293558,4.22117 67.1862238,4.42235 66.8829615,4.55899 L66.8829615,4.59957 C67.2475941,4.72253 67.5472872,4.93434 67.7819099,5.23451 C68.0154236,5.5353 68.1333449,5.88388 68.1333449,6.27951 C68.1333449,6.88048 67.9106797,7.37878 67.4666902,7.77453 C67.0225797,8.17077 66.4978823,8.3689 65.8914788,8.3689 L63.0731533,8.3689 Z M64.0226135,4.17949 L65.7470514,4.17949 C66.1056447,4.17949 66.3932493,4.06252 66.6098854,3.82615 C66.8263904,3.59099 66.9347134,3.33323 66.9347134,3.05334 C66.9347134,2.77345 66.8300905,2.51678 66.6195038,2.2853 C66.410137,2.05308 66.1332498,1.93672 65.789205,1.93672 L64.0226135,1.93672 L64.0226135,4.17949 Z M64.0226135,7.46776 L65.9334913,7.46776 C66.2981238,7.46776 66.5942378,7.34126 66.8215912,7.08814 C67.0490656,6.83636 67.1621878,6.55941 67.1621878,6.25862 C67.1621878,5.95844 67.0454865,5.68393 66.8108638,5.43448 C66.5773501,5.18564 66.2705188,5.06036 65.8914687,5.06036 L64.0226135,5.06036 L64.0226135,7.46776 Z"></path>
                            </g>
                        </g>
                    </g>
                </g>
            </g>
        </g>
    </g>
</svg>